# xmcd
#
# Track frame offsets: 
#        150
#        26218
#        53755
#        78623
#        105815
#        132765
#        159345
#        186215
#        211853
#        241293
#        269360
#
# Disc length: 3962 seconds
#
# Revision: 0
# Processed by: cddbd v1.5.2PL0 Copyright (c) Steve Scherf et al.
# Submitted via: ExactAudioCopy v1.0b3
#
DISCID=8a0f780b
DTITLE=Various Artist - Transit Vol. 12
DYEAR=1900
DGENRE=
TTITLE0=Silvia Coleman - All Around The World (Digital Mix)
TTITLE1=Da Blitz - Take My Way (Digital Mix)
TTITLE2=The Purple Kings - That's The Way You Do It (Digital Mix)
TTITLE3=Jeriko - We Are The Power (Digital Mix)
TTITLE4=Terry Moog and Robofactory - Pump Up My Soul (Digital Mix)
TTITLE5=Molella - Change (Digital Mix)
TTITLE6=Mo-Do - Eins, Zwei, Polizei (Digital Mix)
TTITLE7=Centory - Point Of No Return (Digital Mix)
TTITLE8=Pharao - I Show You Secrets (Digital Mix)
TTITLE9=Jam and Spoon - Find Me (Digital Mix)
TTITLE10=Coco - I Had A Dream (Digital Mix)
EXTD=
EXTT0=
EXTT1=
EXTT2=
EXTT3=
EXTT4=
EXTT5=
EXTT6=
EXTT7=
EXTT8=
EXTT9=
EXTT10=
PLAYORDER=
